<?xml version="1.0" encoding="UTF-8"?><svg id="a" xmlns="http://www.w3.org/2000/svg" width="3.5in" height="1.5in" viewBox="0 0 252 108"><path d="M75.74,54.31c0,9.88-8.01,17.89-17.89,17.89s-17.88-8.01-17.88-17.89,8.01-17.89,17.88-17.89,17.89,8.01,17.89,17.89Z" fill="none" stroke="#4bb2df" stroke-miterlimit="10" stroke-width="1.5"/><path d="M81.81,54.31c0,13.23-10.73,23.96-23.96,23.96s-23.96-10.73-23.96-23.96,10.73-23.96,23.96-23.96,23.96,10.73,23.96,23.96Z" fill="none" stroke="#4bb2df" stroke-miterlimit="10" stroke-width="1.14"/><path d="M87.82,54.31c0,16.55-13.42,29.97-29.97,29.97s-29.97-13.42-29.97-29.97,13.42-29.97,29.97-29.97,29.97,13.42,29.97,29.97Z" fill="none" stroke="#4bb2df" stroke-miterlimit="10" stroke-width=".49"/><path d="M41.15,39.27c5.12-4.25,11.16-3.31,11.16-3.31,7.25,.59,10.13-.62,13.07-2.39l4.76,17.82c-4.24,2.9-12.83,2.43-12.83,2.43-5.72-.54-8.7,1.07-11.61,3.1l-4.56-17.65Z" fill="#d3192a" stroke="#fff" stroke-miterlimit="10" stroke-width="1.05"/><path d="M46.14,58.08c5.12-4.26,11.17-3.19,11.17-3.19,7.25,.59,10.13-.84,13.07-2.61l4,17.8c-4.24,2.9-11.93,2.63-11.93,2.63-5.72-.54-9.02,.89-11.93,2.92l-4.38-17.55Z" fill="#d3192a" stroke="#fff" stroke-miterlimit="10" stroke-width="1.05"/><path d="M49.97,43.24l1.31,5.08c1.35-.89,4.27-.97,4.27-.97,1.54,0,3.68,0,5.52-.42l-1.31-5.08c-1.84,.41-3.98,.42-5.52,.42,0,0-2.92,.08-4.28,.97Z" fill="#231f20"/><path d="M54.63,62.1l1.31,5.08c1.36-.88,4.28-.97,4.28-.97,1.54,0,3.67,0,5.52-.42l-1.31-5.08c-1.84,.41-3.98,.43-5.52,.42,0,0-2.92,.08-4.28,.97Z" fill="#231f20"/><g><path d="M94.23,36.81h2.16v3.6h6.75v-3.6h2.18v9.29h-2.18v-4h-6.75v4h-2.16v-9.29Z" fill="#4d4d4f"/><path d="M111.41,44.35h6.16v-7.54h2.16v7.09c0,1.75-.56,2.2-2.3,2.2h-5.87c-1.75,0-2.3-.45-2.3-2.2v-7.09h2.16v7.54Z" fill="#4d4d4f"/><path d="M123.65,36.81h7.96c1.42,0,2.09,.5,2.09,1.8v2.18c0,1.3-.67,1.8-2.09,1.8h-1.22l4.29,3.51h-3.1l-3.75-3.51h-2.05v3.51h-2.12v-9.29Zm2.12,1.6v2.59h4.86c.67,0,.97-.13,.97-.74v-1.12c0-.61-.31-.74-.97-.74h-4.86Z" fill="#4d4d4f"/><path d="M137.26,36.81h7.96c1.42,0,2.09,.5,2.09,1.8v2.18c0,1.3-.67,1.8-2.09,1.8h-1.22l4.29,3.51h-3.1l-3.74-3.51h-2.05v3.51h-2.12v-9.29Zm2.12,1.6v2.59h4.86c.67,0,.97-.13,.97-.74v-1.12c0-.61-.31-.74-.97-.74h-4.86Z" fill="#4d4d4f"/><path d="M150.87,36.81h2.16v9.29h-2.16v-9.29Z" fill="#4d4d4f"/><path d="M158.91,38.47v5.89h5.83v-2l2.16,.45v1.1c0,1.75-.56,2.2-2.3,2.2h-5.55c-1.75,0-2.3-.45-2.3-2.2v-4.9c0-1.75,.56-2.2,2.3-2.2h5.55c1.75,0,2.3,.45,2.3,2.2v.88l-2.16,.34v-1.76h-5.83Z" fill="#4d4d4f"/><path d="M173.68,36.81h2.09l5.33,9.29h-2.43l-1.12-2.03h-5.89l-1.08,2.03h-2.16l5.26-9.29Zm2.97,5.58l-2-3.78-2.07,3.78h4.07Z" fill="#4d4d4f"/><path d="M183.24,36.81h1.48l6.54,5.47c.38,.31,.74,.63,1.06,1.01-.05-.77-.09-1.31-.09-1.6v-4.88h1.95v9.29h-1.48l-6.82-5.74c-.27-.23-.52-.47-.77-.76,.07,.72,.09,1.21,.09,1.48v5.02h-1.95v-9.29Z" fill="#4d4d4f"/><path d="M198.07,36.81h9.51v1.59h-7.35v2.07h4.29v1.58h-4.29v2.3h7.44v1.75h-9.6v-9.29Z" fill="#4d4d4f"/><path d="M94.22,52.81h1.75l4.37,5.62,4.29-5.62h1.73v9.29h-2v-5.74c0-.18,.02-.5,.07-.99-.2,.41-.38,.76-.54,.97l-3.49,4.64h-.43l-3.49-4.66c-.22-.29-.41-.6-.56-.96,.04,.38,.05,.68,.05,.99v5.74h-1.75v-9.29Z" fill="#4d4d4f"/><path d="M113.46,52.81h2.09l5.33,9.29h-2.43l-1.12-2.04h-5.89l-1.08,2.04h-2.16l5.26-9.29Zm2.97,5.58l-2-3.78-2.07,3.78h4.07Z" fill="#4d4d4f"/><path d="M122.94,52.81h7.96c1.42,0,2.09,.5,2.09,1.8v2.07c0,1.3-.67,1.8-2.09,1.8h-5.83v3.62h-2.12v-9.29Zm2.12,1.6v2.47h4.86c.67,0,.97-.12,.97-.74v-.99c0-.61-.31-.74-.97-.74h-4.86Z" fill="#4d4d4f"/><path d="M135.4,52.81h7.96c1.42,0,2.09,.5,2.09,1.8v2.07c0,1.3-.67,1.8-2.09,1.8h-5.83v3.62h-2.12v-9.29Zm2.12,1.6v2.47h4.86c.67,0,.97-.12,.97-.74v-.99c0-.61-.31-.74-.97-.74h-4.86Z" fill="#4d4d4f"/><path d="M147.86,52.81h2.16v9.29h-2.16v-9.29Z" fill="#4d4d4f"/><path d="M153.83,52.81h1.48l6.54,5.47c.38,.31,.74,.63,1.06,1.01-.05-.78-.09-1.31-.09-1.6v-4.88h1.94v9.29h-1.48l-6.82-5.74c-.27-.23-.52-.47-.77-.76,.07,.72,.09,1.21,.09,1.48v5.02h-1.94v-9.29Z" fill="#4d4d4f"/><path d="M170.54,54.47v5.89h6.75v-2.07h-3.53v-1.58h5.64v3.2c0,1.75-.56,2.2-2.3,2.2h-6.41c-1.75,0-2.3-.45-2.3-2.2v-4.9c0-1.75,.56-2.2,2.3-2.2h6.41c1.69,0,2.3,.43,2.3,2.11v.22l-2.11,.38v-1.04h-6.75Z" fill="#4d4d4f"/></g><g><path d="M95.58,70.78v.88h2.53c.76,0,1.01,.19,1.01,.95v.56c0,.77-.25,.96-1.01,.96h-2.51c-.76,0-1.01-.2-1.01-.96v-.11l.83-.17v.48h2.87v-.93h-2.53c-.76,0-1.01-.2-1.01-.96v-.45c0-.76,.24-.96,1.01-.96h2.3c.72,0,1.01,.19,1.01,.89v.09l-.83,.2v-.46h-2.66Z" fill="#0093d0"/><path d="M100.68,70.08h4.15v.69h-3.21v.9h1.87v.69h-1.87v1.01h3.25v.76h-4.19v-4.05Z" fill="#0093d0"/><path d="M107.73,70.08h.91l2.32,4.05h-1.06l-.49-.89h-2.57l-.47,.89h-.94l2.3-4.05Zm1.29,2.44l-.87-1.65-.9,1.65h1.78Z" fill="#0093d0"/><path d="M113.74,70.08h.94v4.05h-.94v-4.05Z" fill="#0093d0"/><path d="M117.22,70.78v.88h2.53c.76,0,1.01,.19,1.01,.95v.56c0,.77-.25,.96-1.01,.96h-2.51c-.76,0-1.01-.2-1.01-.96v-.11l.83-.17v.48h2.87v-.93h-2.53c-.76,0-1.01-.2-1.01-.96v-.45c0-.76,.24-.96,1.01-.96h2.3c.72,0,1.01,.19,1.01,.89v.09l-.83,.2v-.46h-2.66Z" fill="#0093d0"/><path d="M122.32,70.08h.94v3.29h3.04v.76h-3.98v-4.05Z" fill="#0093d0"/><path d="M129.2,70.08h.91l2.33,4.05h-1.06l-.49-.89h-2.57l-.47,.89h-.95l2.3-4.05Zm1.3,2.44l-.87-1.65-.9,1.65h1.78Z" fill="#0093d0"/><path d="M133.33,70.08h.64l2.86,2.39c.16,.13,.32,.27,.46,.44-.02-.33-.04-.57-.04-.7v-2.13h.85v4.05h-.64l-2.98-2.51c-.12-.1-.23-.2-.34-.33,.03,.31,.04,.53,.04,.64v2.2h-.85v-4.05Z" fill="#0093d0"/><path d="M139.77,70.08h2.61c1.52,0,2.32,.75,2.32,2,0,.76-.33,1.39-.89,1.74-.4,.24-.95,.31-1.67,.31h-2.37v-4.05Zm2.16,3.29c1.19,0,1.79-.3,1.79-1.31,0-.82-.45-1.26-1.34-1.26h-1.67v2.57h1.22Z" fill="#0093d0"/><path d="M149.53,70.78v.88h2.53c.76,0,1.02,.19,1.02,.95v.56c0,.77-.25,.96-1.02,.96h-2.51c-.76,0-1.01-.2-1.01-.96v-.11l.84-.17v.48h2.87v-.93h-2.53c-.76,0-1.01-.2-1.01-.96v-.45c0-.76,.24-.96,1.01-.96h2.3c.72,0,1.01,.19,1.01,.89v.09l-.83,.2v-.46h-2.66Z" fill="#0093d0"/><path d="M155.4,70.08h2.99c.76,0,1,.2,1,.96v2.14c0,.77-.24,.96-1,.96h-2.99c-.76,0-1.01-.2-1.01-.96v-2.14c0-.76,.24-.96,1.01-.96Zm3.05,3.29v-2.57h-3.11v2.57h3.11Z" fill="#0093d0"/><path d="M160.58,70.08h4.1v.71h-3.16v1.07h1.71v.74h-1.71v1.54h-.94v-4.05Z" fill="#0093d0"/><path d="M168.05,74.13h-.94v-3.33h-1.86v-.72h4.68v.72h-1.87v3.33Z" fill="#0093d0"/><path d="M170.34,70.08h.98l1.03,2.72,1.08-2.72h.66l1.1,2.72,.98-2.72h.84l-1.56,4.05h-.63l-1.12-2.81-1.13,2.81h-.65l-1.57-4.05Z" fill="#0093d0"/><path d="M179.31,70.08h.91l2.32,4.05h-1.06l-.49-.89h-2.57l-.47,.89h-.94l2.29-4.05Zm1.3,2.44l-.87-1.65-.9,1.65h1.78Z" fill="#0093d0"/><path d="M183.3,70.08h3.47c.62,0,.92,.22,.92,.79v.95c0,.57-.29,.79-.92,.79h-.53l1.87,1.53h-1.35l-1.63-1.53h-.9v1.53h-.93v-4.05Zm.93,.7v1.13h2.12c.29,0,.42-.06,.42-.32v-.49c0-.27-.13-.32-.42-.32h-2.12Z" fill="#0093d0"/><path d="M189.21,70.08h4.15v.69h-3.21v.9h1.87v.69h-1.87v1.01h3.25v.76h-4.19v-4.05Z" fill="#0093d0"/></g></svg>