<?xml version="1.0" encoding="utf-8"?>
<!-- Generator: Adobe Illustrator 22.0.1, SVG Export Plug-In . SVG Version: 6.00 Build 0)  -->
<svg version="1.1" height="512" width="512" id="Layer_1" xmlns="http://www.w3.org/2000/svg" xmlns:xlink="http://www.w3.org/1999/xlink" x="0px" y="0px"
	 viewBox="0 0 412.8 537.7" style="enable-background:new 0 0 412.8 537.7;" xml:space="preserve">
<style type="text/css">
	.st0{fill:none;stroke:#000000;stroke-width:11;stroke-miterlimit:10;}
	.st1{fill:#FFFFFF;stroke:#4D4D4D;stroke-width:10;stroke-miterlimit:10;}
	.st2{fill:none;stroke:#000000;stroke-width:4;stroke-miterlimit:10;}
</style>
<path class="st0" d="M382.5,281.5H19v-259h363.5c13.3,0,24,10.7,24,24v211C406.5,270.8,395.8,281.5,382.5,281.5z"/>
<path class="st1" d="M382.5,271.5H19v-253h363.5c13.3,0,24,10.7,24,24v205C406.5,260.8,395.8,271.5,382.5,271.5z"/>
<g>
	<path d="M2,526.5c0,5,4,9,9,9h4c5,0,9-4,9-9v-513c0-5-4-9-9-9h-4c-5,0-9,4-9,9V526.5z"/>
	<path class="st2" d="M2,526.5c0,5,4,9,9,9h4c5,0,9-4,9-9v-513c0-5-4-9-9-9h-4c-5,0-9,4-9,9V526.5z"/>
</g>
</svg>
